<?xml version='1.0' encoding='UTF-8' standalone='no'?>
<svg height="300pt" xmlns="http://www.w3.org/2000/svg" xmlns:xlink="http://www.w3.org/1999/xlink" width="500pt" viewBox="0 0 500 300">
 <title>gl2ps_renderer figure</title>
 <desc>
Creator: GL2PS 1.4.0, (C) 1999-2017 C. Geuzaine
For: Octave
CreationDate: Mon Feb  8 11:41:16 2021
</desc>
 <defs/>
 <polygon fill="#ffffff" points="0,0 500,0 500,300 0,300"/>
 <g>
  <polygon fill="#ffffff" points="0,300 500,300 500,0 0,0" shape-rendering="crispEdges"/>
  <clipPath id="cp00500300">
   <polygon points="0,300 500,300 500,0 0,0"/>
  </clipPath>
  <g clip-path="url(#cp00500300)">
   <polygon fill="#ffffff" points="65.0001,267 452.5,267 452.5,22.5 65.0001,22.5" shape-rendering="crispEdges"/>
   <polyline fill="none" stroke-linejoin="miter" stroke-opacity="0.15" stroke-width="0.5" stroke-dasharray="16,0" points="65.0001,267 65.0001,22.5" stroke="#262626" stroke-linecap="butt"/>
   <polyline fill="none" stroke-linejoin="miter" stroke-opacity="0.15" stroke-width="0.5" stroke-dasharray="16,0" points="142.5,267 142.5,22.5" stroke="#262626" stroke-linecap="butt"/>
   <polyline fill="none" stroke-linejoin="miter" stroke-opacity="0.15" stroke-width="0.5" stroke-dasharray="16,0" points="220,267 220,22.5" stroke="#262626" stroke-linecap="butt"/>
   <polyline fill="none" stroke-linejoin="miter" stroke-opacity="0.15" stroke-width="0.5" stroke-dasharray="16,0" points="297.5,267 297.5,22.5" stroke="#262626" stroke-linecap="butt"/>
   <polyline fill="none" stroke-linejoin="miter" stroke-opacity="0.15" stroke-width="0.5" stroke-dasharray="16,0" points="375,267 375,22.5" stroke="#262626" stroke-linecap="butt"/>
   <polyline fill="none" stroke-linejoin="miter" stroke-opacity="0.15" stroke-width="0.5" stroke-dasharray="16,0" points="452.5,267 452.5,22.5" stroke="#262626" stroke-linecap="butt"/>
   <polyline fill="none" stroke-linejoin="miter" stroke-width="0.5" points="65.0001,267 65.0001,263.117" stroke="#262626" stroke-linecap="butt"/>
   <polyline fill="none" stroke-linejoin="miter" stroke-width="0.5" points="65.0001,22.5 65.0001,26.383" stroke="#262626" stroke-linecap="butt"/>
   <polyline fill="none" stroke-linejoin="miter" stroke-width="0.5" points="142.5,267 142.5,263.117" stroke="#262626" stroke-linecap="butt"/>
   <polyline fill="none" stroke-linejoin="miter" stroke-width="0.5" points="142.5,22.5 142.5,26.383" stroke="#262626" stroke-linecap="butt"/>
   <polyline fill="none" stroke-linejoin="miter" stroke-width="0.5" points="220,267 220,263.117" stroke="#262626" stroke-linecap="butt"/>
   <polyline fill="none" stroke-linejoin="miter" stroke-width="0.5" points="220,22.5 220,26.383" stroke="#262626" stroke-linecap="butt"/>
   <polyline fill="none" stroke-linejoin="miter" stroke-width="0.5" points="297.5,267 297.5,263.117" stroke="#262626" stroke-linecap="butt"/>
   <polyline fill="none" stroke-linejoin="miter" stroke-width="0.5" points="297.5,22.5 297.5,26.383" stroke="#262626" stroke-linecap="butt"/>
   <polyline fill="none" stroke-linejoin="miter" stroke-width="0.5" points="375,267 375,263.117" stroke="#262626" stroke-linecap="butt"/>
   <polyline fill="none" stroke-linejoin="miter" stroke-width="0.5" points="375,22.5 375,26.383" stroke="#262626" stroke-linecap="butt"/>
   <polyline fill="none" stroke-linejoin="miter" stroke-width="0.5" points="452.5,267 452.5,263.117" stroke="#262626" stroke-linecap="butt"/>
   <polyline fill="none" stroke-linejoin="miter" stroke-width="0.5" points="452.5,22.5 452.5,26.383" stroke="#262626" stroke-linecap="butt"/>
   <text font-style="normal" transform="translate(62,282.515) rotate(-0,3,-8)" font-family="FreeSans" xml:space="preserve" font-weight="normal" font-size="10">
    <tspan fill="rgb(38,38,38)" x="0 " y="-0">9</tspan>
   </text>
   <text font-style="normal" transform="translate(135,282.515) rotate(-0,7.5,-8)" font-family="FreeSans" xml:space="preserve" font-weight="normal" font-size="10">
    <tspan fill="rgb(38,38,38)" x="0 6 9 " y="-0">9.1</tspan>
   </text>
   <text font-style="normal" transform="translate(212.5,282.515) rotate(-0,7.5,-8)" font-family="FreeSans" xml:space="preserve" font-weight="normal" font-size="10">
    <tspan fill="rgb(38,38,38)" x="0 6 9 " y="-0">9.2</tspan>
   </text>
   <text font-style="normal" transform="translate(290,282.515) rotate(-0,7.5,-8)" font-family="FreeSans" xml:space="preserve" font-weight="normal" font-size="10">
    <tspan fill="rgb(38,38,38)" x="0 6 9 " y="-0">9.3</tspan>
   </text>
   <text font-style="normal" transform="translate(367.5,282.515) rotate(-0,7.5,-8)" font-family="FreeSans" xml:space="preserve" font-weight="normal" font-size="10">
    <tspan fill="rgb(38,38,38)" x="0 6 9 " y="-0">9.4</tspan>
   </text>
   <text font-style="normal" transform="translate(445,282.515) rotate(-0,7.5,-8)" font-family="FreeSans" xml:space="preserve" font-weight="normal" font-size="10">
    <tspan fill="rgb(38,38,38)" x="0 6 9 " y="-0">9.5</tspan>
   </text>
   <polyline fill="none" stroke-linejoin="miter" stroke-opacity="0.15" stroke-width="0.5" stroke-dasharray="16,0" points="65.0001,239.833 452.5,239.833" stroke="#262626" stroke-linecap="butt"/>
   <polyline fill="none" stroke-linejoin="miter" stroke-opacity="0.15" stroke-width="0.5" stroke-dasharray="16,0" points="65.0001,185.5 452.5,185.5" stroke="#262626" stroke-linecap="butt"/>
   <polyline fill="none" stroke-linejoin="miter" stroke-opacity="0.15" stroke-width="0.5" stroke-dasharray="16,0" points="65.0001,131.167 452.5,131.167" stroke="#262626" stroke-linecap="butt"/>
   <polyline fill="none" stroke-linejoin="miter" stroke-opacity="0.15" stroke-width="0.5" stroke-dasharray="16,0" points="65.0001,76.8334 452.5,76.8334" stroke="#262626" stroke-linecap="butt"/>
   <polyline fill="none" stroke-linejoin="miter" stroke-opacity="0.15" stroke-width="0.5" stroke-dasharray="16,0" points="65.0001,22.5 452.5,22.5" stroke="#262626" stroke-linecap="butt"/>
   <polyline fill="none" stroke-linejoin="miter" stroke-width="0.5" points="65.0001,239.833 68.8701,239.833" stroke="#262626" stroke-linecap="butt"/>
   <polyline fill="none" stroke-linejoin="miter" stroke-width="0.5" points="452.5,239.833 448.63,239.833" stroke="#262626" stroke-linecap="butt"/>
   <polyline fill="none" stroke-linejoin="miter" stroke-width="0.5" points="65.0001,185.5 68.8701,185.5" stroke="#262626" stroke-linecap="butt"/>
   <polyline fill="none" stroke-linejoin="miter" stroke-width="0.5" points="452.5,185.5 448.63,185.5" stroke="#262626" stroke-linecap="butt"/>
   <polyline fill="none" stroke-linejoin="miter" stroke-width="0.5" points="65.0001,131.167 68.8701,131.167" stroke="#262626" stroke-linecap="butt"/>
   <polyline fill="none" stroke-linejoin="miter" stroke-width="0.5" points="452.5,131.167 448.63,131.167" stroke="#262626" stroke-linecap="butt"/>
   <polyline fill="none" stroke-linejoin="miter" stroke-width="0.5" points="65.0001,76.8334 68.8701,76.8334" stroke="#262626" stroke-linecap="butt"/>
   <polyline fill="none" stroke-linejoin="miter" stroke-width="0.5" points="452.5,76.8334 448.63,76.8334" stroke="#262626" stroke-linecap="butt"/>
   <polyline fill="none" stroke-linejoin="miter" stroke-width="0.5" points="65.0001,22.5 68.8701,22.5" stroke="#262626" stroke-linecap="butt"/>
   <polyline fill="none" stroke-linejoin="miter" stroke-width="0.5" points="452.5,22.5 448.63,22.5" stroke="#262626" stroke-linecap="butt"/>
   <text font-style="normal" transform="translate(54.0064,243.833) rotate(-0,6,-4)" font-family="FreeSans" xml:space="preserve" font-weight="normal" font-size="10">
    <tspan fill="rgb(38,38,38)" x="0 " y="-0">0</tspan>
   </text>
   <text font-style="normal" transform="translate(39.0064,189.5) rotate(-0,21,-4)" font-family="FreeSans" xml:space="preserve" font-weight="normal" font-size="10">
    <tspan fill="rgb(38,38,38)" x="0 6 9 15 " y="-0">0.01</tspan>
   </text>
   <text font-style="normal" transform="translate(39.0064,135.167) rotate(-0,21,-4)" font-family="FreeSans" xml:space="preserve" font-weight="normal" font-size="10">
    <tspan fill="rgb(38,38,38)" x="0 6 9 15 " y="-0">0.02</tspan>
   </text>
   <text font-style="normal" transform="translate(39.0064,80.8333) rotate(-0,21,-4)" font-family="FreeSans" xml:space="preserve" font-weight="normal" font-size="10">
    <tspan fill="rgb(38,38,38)" x="0 6 9 15 " y="-0">0.03</tspan>
   </text>
   <text font-style="normal" transform="translate(39.0064,26.5) rotate(-0,21,-4)" font-family="FreeSans" xml:space="preserve" font-weight="normal" font-size="10">
    <tspan fill="rgb(38,38,38)" x="0 6 9 15 " y="-0">0.04</tspan>
   </text>
   <polyline fill="none" stroke-linejoin="miter" stroke-width="0.5" stroke-dasharray="16,0" points="65.0001,267 452.5,267" stroke="#262626" stroke-linecap="square"/>
   <polyline fill="none" stroke-linejoin="miter" stroke-width="0.5" stroke-dasharray="16,0" points="65.0001,22.5 452.5,22.5" stroke="#262626" stroke-linecap="square"/>
   <polyline fill="none" stroke-linejoin="miter" stroke-width="0.5" stroke-dasharray="16,0" points="65.0001,267 65.0001,22.5" stroke="#262626" stroke-linecap="square"/>
   <polyline fill="none" stroke-linejoin="miter" stroke-width="0.5" stroke-dasharray="16,0" points="452.5,267 452.5,22.5" stroke="#262626" stroke-linecap="square"/>
   <text font-style="normal" transform="translate(240.75,299.515) rotate(-0,18,-12)" font-family="FreeSans" xml:space="preserve" font-weight="normal" font-size="11">
    <tspan fill="rgb(38,38,38)" x="0 3 5 14 20 23 27 32 " y="-3">time (s)</tspan>
   </text>
   <text font-style="normal" transform="translate(16.0064,144.75) rotate(-90,18,0)" font-family="FreeSans" xml:space="preserve" font-weight="normal" font-size="11">
    <tspan fill="rgb(38,38,38)" x="0 5 9 12 16 19 23 32 " y="-3">x(t) (m)</tspan>
   </text>
   <text font-style="normal" transform="translate(214.75,12.5) rotate(-0,44,0)" font-family="FreeSans" xml:space="preserve" font-weight="bold" font-size="11">
    <tspan fill="rgb(0,0,0)" x="0 7 14 20 23 27 30 37 44 47 53 59 62 65 69 72 82 " y="-3">position vs. time</tspan>
   </text>
   <polyline fill="none" stroke-linejoin="round" stroke-width="3" points="64.6127,239.833 65.3067,239.833 66.082,239.833 66.8564,239.833 67.6317,239.833 68.4066,239.833 69.1819,239.833 69.9563,239.833 70.7316,239.833 71.5065,239.833 72.2814,239.833 73.0562,239.833 73.8316,239.833 74.6059,239.833 75.3813,239.833 76.1561,239.833 76.9315,239.833 77.7059,239.833 78.4812,239.833 79.2556,239.833 80.0309,239.833 80.8058,239.833 81.5811,239.833 82.3555,239.833 83.1308,239.833 83.9052,239.833 84.6806,239.833 85.4554,239.833 86.2308,239.833 87.0051,239.833 87.7805,239.833 88.5549,239.833 89.3302,239.833 90.1051,239.833 90.8804,239.833 91.6548,239.833 92.4301,239.833 93.2045,239.833 93.9798,239.833 94.7547,239.833 95.53,239.833 96.3054,239.833 97.0798,239.833 97.8541,239.833 98.6295,239.833 99.4043,239.833 100.18,239.833 100.955,239.764 101.729,239.695 102.504,239.557 103.279,239.212 104.054,238.798 104.829,238.177 105.605,237.487 106.379,236.59 107.154,235.624 107.929,234.451 108.704,233.209 109.479,231.829 110.254,230.311 111.029,228.655 111.804,226.93 112.579,224.998 113.353,223.066 114.129,220.926 114.904,218.787 115.678,216.441 116.453,214.095 117.229,211.611 118.003,209.058 118.778,206.367 119.554,203.607 120.328,200.777 121.103,197.879 121.878,194.912 122.653,191.807 123.428,188.702 124.203,185.459 124.978,182.216 125.753,178.834 126.528,175.384 127.303,171.934 128.078,168.415 128.853,164.827 129.627,161.239 130.403,157.65 131.177,153.924 131.953,150.267 132.727,146.61 133.502,142.884 134.277,139.226 135.052,135.5 135.827,131.843 136.602,128.186 137.377,124.598 138.152,121.01 138.927,117.421 139.702,113.902 140.477,110.452 141.252,107.071 142.026,103.69 142.802,100.378 143.577,97.1344 144.352,93.9603 145.126,90.8551 145.902,87.819 146.676,84.8519 147.451,81.9537 148.226,79.1246 149.002,76.2954 149.776,73.6043 150.551,71.2582 151.326,69.8781 152.101,68.291 152.876,66.566 153.651,64.1508 154.426,61.9427 155.201,59.7346 155.975,57.5956 156.751,55.5944 157.526,53.6623 158.301,51.7993 159.075,50.0052 159.851,48.3491 160.626,46.693 161.4,45.1749 162.175,43.7259 162.951,42.3458 163.725,41.1038 164.5,39.9307 165.276,38.8266 166.05,37.7916 166.825,36.8255 167.6,35.9975 168.375,35.2385 169.15,34.5484 169.925,33.9274 170.7,33.3754 171.474,32.8924 172.25,32.5473 173.024,32.2023 173.8,31.9953 174.575,31.7883 175.35,31.7193 176.124,31.7193 176.899,31.7193 177.674,31.7883 178.449,31.9953 179.224,32.2023 179.999,32.4093 180.774,32.7543 181.549,33.0994 182.323,33.5134 183.099,33.9964 183.874,34.4794 184.649,35.0314 185.424,35.5835 186.199,36.2045 186.973,36.8945 187.748,37.5846 188.524,38.2746 189.299,39.0336 190.074,39.7927 190.848,40.6207 191.623,41.3798 192.398,42.2768 193.173,43.1048 193.948,44.0019 194.724,44.8989 195.498,45.796 196.272,46.762 197.048,47.6591 197.823,48.6251 198.598,49.5912 199.373,50.4882 200.148,51.4542 200.922,52.4203 201.697,53.3863 202.473,54.3524 203.248,55.3184 204.023,56.2845 204.797,57.2505 205.572,58.1476 206.347,59.1136 207.122,60.0107 207.897,60.9767 208.673,61.8737 209.447,62.7708 210.222,63.5988 210.997,64.4959 211.772,65.3239 212.547,66.152 213.322,66.98 214.097,67.808 214.872,68.3601 215.647,68.8431 216.422,69.3951 217.196,69.8781 217.972,70.3612 218.746,70.8442 219.522,71.2582 220.296,71.7412 221.072,72.4313 221.846,73.1213 222.621,73.8113 223.396,74.5014 224.171,75.1224 224.946,75.7434 225.721,76.3645 226.496,76.9855 227.271,77.6065 228.045,78.1585 228.821,78.7106 229.596,79.1936 230.371,79.7456 231.145,80.2286 231.921,80.7117 232.695,81.1947 233.47,81.6087 234.245,82.0227 235.021,82.3677 235.795,82.7818 236.57,83.1268 237.345,83.4718 238.12,83.8168 238.895,84.0928 239.67,84.3688 240.445,84.6448 241.22,84.8519 241.995,85.0589 242.77,85.2659 243.545,85.4729 244.32,85.6109 245.094,85.7489 245.87,85.8869 246.645,86.0249 247.42,86.0939 248.195,86.1629 248.97,86.2319 249.745,86.2319 250.519,86.2319 251.294,86.2319 252.069,86.2319 252.845,86.2319 253.619,86.2319 254.395,86.1629 255.169,86.0939 255.944,86.0249 256.719,85.9559 257.494,85.8869 258.269,85.7489 259.044,85.6799 259.819,85.5419 260.593,85.4039 261.369,85.3349 262.144,85.1279 262.918,85.0589 263.694,84.8519 264.468,84.7138 265.243,84.5759 266.018,84.3688 266.794,84.2308 267.568,84.0238 268.343,83.8168 269.118,83.6788 269.893,83.4718 270.668,83.2648 271.443,83.0578 272.218,82.8508 272.993,82.6438 273.768,82.4367 274.543,82.2297 275.318,82.0227 276.093,81.8157 276.867,81.6087 277.643,81.4017 278.418,81.1947 279.193,80.9877 279.967,80.7807 280.743,80.5737 281.517,80.3666 282.292,80.1596 283.067,79.9526 283.843,79.7456 284.617,79.5386 285.392,79.3316 286.167,79.1246 286.942,78.9176 287.717,78.7106 288.492,78.5726 289.267,78.3655 290.042,78.1585 290.816,78.0205 291.592,77.8135 292.367,77.6755 293.142,77.4685 293.916,77.3305 294.692,77.1235 295.466,76.9855 296.241,76.8475 297.016,76.7095 297.791,76.5714 298.566,76.4335 299.341,76.2954 300.116,76.1574 300.891,76.0194 301.666,75.9504 302.441,75.8124 303.216,75.6744 303.991,75.6054 304.766,75.4674 305.541,75.3984 306.315,75.3294 307.091,75.2604 307.865,75.1914 308.64,75.0534 309.416,74.9844 310.191,74.9154 310.965,74.9154 311.74,74.8464 312.515,74.7774 313.29,74.7084 314.065,74.7084 314.84,74.6394 315.615,74.6394 316.39,74.6394 317.164,74.5704 317.94,74.5704 318.715,74.5704 319.49,74.5704 320.264,74.5704 321.04,74.5704 321.815,74.5704 322.589,74.5704 323.365,74.5704 324.14,74.5704 324.914,74.5704 325.689,74.5704 326.465,74.5704 327.239,74.5704 328.014,74.5704 328.789,74.5704 329.564,74.5704 330.339,74.5704 331.114,74.5704 331.889,74.5704 332.664,74.5704 333.439,74.5704 334.213,74.5704 334.989,74.5704 335.764,74.5704 336.539,74.5704 337.314,74.5704 338.089,74.5704 338.864,74.5704 339.638,74.5704 340.414,74.5704 341.188,74.5704 341.964,74.5704 342.738,74.5704 343.513,74.5704 344.288,74.5704 345.063,74.5704 345.838,74.5704 346.613,74.5704 347.388,74.5704 348.163,74.5704 348.938,74.5704 349.713,74.5704 350.488,74.5704 351.263,74.5704 352.037,74.5704 352.813,74.5704 353.587,74.5704 354.362,74.5704 355.137,74.5704 355.913,74.5704 356.687,74.5704 357.462,74.5704 358.237,74.5704 359.012,74.5704 359.787,74.5704 360.562,74.5704 361.337,74.5704 362.112,74.5704 362.886,74.5704 363.662,74.5704 364.437,74.5704 365.212,74.5704 365.986,74.5704 366.762,74.5704 367.537,74.5704 368.311,74.5704 369.086,74.5704 369.862,74.5704 370.636,74.5704 371.411,74.5704 372.186,74.5704 372.962,74.5704 373.736,74.5704 374.511,74.5704 375.286,74.5704 376.061,74.5704 376.836,74.5704 377.611,74.5704 378.387,74.5704 379.161,74.5704 379.935,74.5704 380.711,74.5704 381.485,74.5704 382.261,74.5704 383.036,74.5704 383.811,74.6394 384.585,74.6394 385.36,74.6394 386.135,74.6394 386.91,74.6394 387.686,74.6394 388.46,74.6394 389.235,74.6394 390.01,74.6394 390.785,74.6394 391.56,74.6394 392.335,74.6394 393.11,74.6394 393.885,74.6394 394.66,74.6394 395.434,74.6394 396.21,74.6394 396.985,74.6394 397.759,74.6394 398.535,74.6394 399.309,74.6394 400.084,74.6394 400.859,74.6394 401.635,74.6394 402.409,74.6394 403.184,74.6394 403.959,74.6394 404.734,74.6394 405.509,74.6394 406.284,74.6394 407.059,74.6394 407.834,74.6394 408.609,74.6394 409.384,74.6394 410.159,74.6394 410.934,74.6394 411.708,74.6394 412.484,74.6394 413.259,74.6394 414.034,74.6394 414.808,74.6394 415.584,74.6394 416.358,74.6394 417.133,74.6394 417.908,74.6394 418.684,74.6394 419.458,74.6394 420.233,74.6394 421.008,74.6394 421.783,74.6394 422.558,74.6394 423.333,74.6394 424.108,74.6394 424.883,74.6394 425.657,74.6394 426.433,74.6394 427.207,74.6394 427.983,74.6394 428.757,74.6394 429.533,74.6394 430.307,74.6394 431.082,74.6394 431.857,74.6394 432.632,74.6394 433.407,74.6394 434.182,74.6394 434.957,74.6394 435.732,74.6394 436.507,74.6394 437.282,74.6394 438.057,74.6394 438.832,74.6394 439.607,74.6394 440.382,74.6394 441.156,74.6394 441.932,74.6394 442.707,74.6394 443.481,74.6394 444.256,74.6394 445.032,74.6394 445.806,74.6394 446.581,74.6394 447.357,74.6394 448.131,74.6394 448.906,74.6394 449.681,74.6394 450.456,74.6394 451.231,74.6394 452.006,74.6394 452.781,74.6394 452.887,74.6394" stroke="#ff0000" stroke-linecap="butt"/>
   <polyline fill="none" stroke-linejoin="round" stroke-width="3" points="64.6127,239.834 65.3067,239.834 66.082,239.834 66.8564,239.834 67.6317,239.834 68.4066,239.834 69.1819,239.834 69.9563,239.834 70.7316,239.834 71.5065,239.834 72.2814,239.834 73.0562,239.834 73.8316,239.834 74.6059,239.834 75.3813,239.834 76.1561,239.834 76.9315,239.834 77.7059,239.834 78.4812,239.834 79.2556,239.834 80.0309,239.834 80.8058,239.834 81.5811,239.834 82.3555,239.834 83.1308,239.834 83.9052,239.834 84.6806,239.834 85.4554,239.834 86.2308,239.834 87.0051,239.834 87.7805,239.834 88.5549,239.834 89.3302,239.834 90.1051,239.834 90.8804,239.834 91.6548,239.834 92.4301,239.834 93.2045,239.834 93.9798,239.834 94.7547,239.834 95.53,239.834 96.3054,239.834 97.0798,239.834 97.8541,239.834 98.6295,239.834 99.4043,239.834 100.18,239.834 100.955,239.806 101.729,239.623 102.504,239.284 103.279,238.792 104.054,238.15 104.829,237.36 105.605,236.428 106.379,235.356 107.154,234.15 107.929,232.812 108.704,231.347 109.479,229.757 110.254,228.047 111.029,226.219 111.804,224.278 112.579,222.225 113.353,220.066 114.129,217.801 114.904,215.435 115.678,212.97 116.453,210.409 117.229,207.755 118.003,205.009 118.778,202.176 119.554,199.257 120.328,196.254 121.103,193.171 121.878,190.009 122.653,186.77 123.428,183.457 124.203,180.073 124.978,176.622 125.753,173.113 126.528,169.552 127.303,165.945 128.078,162.301 128.853,158.624 129.627,154.923 130.403,151.203 131.177,147.47 131.953,143.731 132.727,139.992 133.502,136.258 134.277,132.535 135.052,128.829 135.827,125.144 136.602,121.486 137.377,117.859 138.152,114.27 138.927,110.721 139.702,107.218 140.477,103.764 141.252,100.363 142.026,97.0206 142.802,93.7387 143.577,90.5212 144.352,87.3713 145.126,84.2921 145.902,81.2863 146.676,78.3566 147.451,75.5056 148.226,72.7354 149.002,70.0482 149.776,67.4458 150.551,64.9299 151.326,62.5022 152.101,60.164 152.876,57.9164 153.651,55.7605 154.426,53.6972 155.201,51.727 155.975,49.8505 156.751,48.0681 157.526,46.3801 158.301,44.7863 159.075,43.2867 159.851,41.8812 160.626,40.5693 161.4,39.3505 162.175,38.2242 162.951,37.1896 163.725,36.2458 164.5,35.3919 165.276,34.6266 166.05,33.9489 166.825,33.3573 167.6,32.8504 168.375,32.4268 169.15,32.0848 169.925,31.8228 170.7,31.6389 171.474,31.5314 172.25,31.4984 173.024,31.5333 173.8,31.632 174.575,31.7928 175.35,32.0135 176.124,32.2923 176.899,32.6271 177.674,33.016 178.449,33.4568 179.224,33.9475 179.999,34.4861 180.774,35.0702 181.549,35.6978 182.323,36.3668 183.099,37.075 183.874,37.8203 184.649,38.6005 185.424,39.4135 186.199,40.257 186.973,41.1291 187.748,42.0275 188.524,42.9502 189.299,43.8951 190.074,44.8602 190.848,45.8433 191.623,46.8425 192.398,47.8559 193.173,48.8814 193.948,49.9172 194.724,50.9613 195.498,52.0121 196.272,53.0675 197.048,54.126 197.823,55.1857 198.598,56.2451 199.373,57.3024 200.148,58.3562 200.922,59.4048 201.697,60.4468 202.473,61.4809 203.248,62.5055 204.023,63.5194 204.797,64.5212 205.572,65.5099 206.347,66.4842 207.122,67.443 207.897,68.3852 208.673,69.3098 209.447,70.2159 210.222,71.1027 210.997,71.9691 211.772,72.8146 212.547,73.6382 213.322,74.4394 214.097,75.2176 214.872,75.972 215.647,76.7023 216.422,77.4079 217.196,78.0884 217.972,78.7436 218.746,79.3729 219.522,79.9762 220.296,80.5533 221.072,81.1039 221.846,81.6279 222.621,82.1253 223.396,82.596 224.171,83.0399 224.946,83.4572 225.721,83.848 226.496,84.2122 227.271,84.5501 228.045,84.8619 228.821,85.1478 229.596,85.4081 230.371,85.643 231.145,85.853 231.921,86.0382 232.695,86.1992 233.47,86.3363 234.245,86.45 235.021,86.5407 235.795,86.6089 236.57,86.6552 237.345,86.68 238.12,86.6838 238.895,86.6719 239.67,86.6467 240.445,86.6089 241.22,86.5587 241.995,86.4965 242.77,86.4229 243.545,86.3382 244.32,86.2428 245.094,86.1372 245.87,86.0218 246.645,85.897 247.42,85.7634 248.195,85.6214 248.97,85.4713 249.745,85.3137 250.519,85.149 251.294,84.9776 252.069,84.8 252.845,84.6166 253.619,84.4279 254.395,84.2343 255.169,84.0362 255.944,83.8342 256.719,83.6284 257.494,83.4195 258.269,83.2078 259.044,82.9937 259.819,82.7775 260.593,82.5598 261.369,82.3408 262.144,82.121 262.918,81.9007 263.694,81.6802 264.468,81.4599 265.243,81.2402 266.018,81.0213 266.794,80.8036 267.568,80.5874 268.343,80.3729 269.118,80.1605 269.893,79.9504 270.668,79.7429 271.443,79.5382 272.218,79.3366 272.993,79.1383 273.768,78.9435 274.543,78.7524 275.318,78.5653 276.093,78.3822 276.867,78.2034 277.643,78.0291 278.418,77.8593 279.193,77.6942 279.967,77.534 280.743,77.3787 281.517,77.2285 282.292,77.0835 283.067,76.9437 283.843,76.8092 284.617,76.68 285.392,76.5564 286.167,76.4382 286.942,76.3255 287.717,76.2183 288.492,76.1167 289.267,76.0206 290.042,75.9301 290.816,75.8451 291.592,75.7656 292.367,75.6917 293.142,75.6231 293.916,75.56 294.692,75.5023 295.466,75.4499 296.241,75.4027 297.016,75.3607 297.791,75.3238 298.566,75.292 299.341,75.265 300.116,75.2429 300.891,75.2255 301.666,75.2128 302.441,75.2047 303.216,75.2009 303.991,75.2003 304.766,75.2005 305.541,75.2005 306.315,75.2013 307.091,75.2018 307.865,75.2019 308.64,75.2029 309.416,75.2035 310.191,75.2038 310.965,75.2049 311.74,75.2057 312.515,75.2061 313.29,75.2063 314.065,75.2073 314.84,75.2079 315.615,75.2082 316.39,75.2082 317.164,75.209 317.94,75.2095 318.715,75.2097 319.49,75.2107 320.264,75.2113 321.04,75.2117 321.815,75.2128 322.589,75.2136 323.365,75.2141 324.14,75.2143 324.914,75.2152 325.689,75.2159 326.465,75.2162 327.239,75.2173 328.014,75.2181 328.789,75.2186 329.564,75.2187 330.339,75.2196 331.114,75.2203 331.889,75.2205 332.664,75.2216 333.439,75.2224 334.213,75.2228 334.989,75.2229 335.764,75.2238 336.539,75.2244 337.314,75.2247 338.089,75.2246 338.864,75.2254 339.638,75.2258 340.414,75.2259 341.188,75.2268 341.964,75.2274 342.738,75.2276 343.513,75.2287 344.288,75.2294 345.063,75.2298 345.838,75.2298 346.613,75.2307 347.388,75.2312 348.163,75.2315 348.938,75.2314 349.713,75.2321 350.488,75.2325 351.263,75.2325 352.037,75.2334 352.813,75.2339 353.587,75.2342 354.362,75.2352 355.137,75.2359 355.913,75.2362 356.687,75.2374 357.462,75.2382 358.237,75.2387 359.012,75.2389 359.787,75.2398 360.562,75.2404 361.337,75.2407 362.112,75.2418 362.886,75.2426 363.662,75.243 364.437,75.2431 365.212,75.2439 365.986,75.2445 366.762,75.2448 367.537,75.2446 368.311,75.2454 369.086,75.2457 369.862,75.2458 370.636,75.2467 371.411,75.2472 372.186,75.2474 372.962,75.2484 373.736,75.249 374.511,75.2494 375.286,75.2505 376.061,75.2513 376.836,75.2517 377.611,75.2518 378.387,75.2528 379.161,75.2533 379.935,75.2536 380.711,75.2546 381.485,75.2553 382.261,75.2557 383.036,75.2568 383.811,75.2576 384.585,75.2581 385.36,75.2582 386.135,75.2592 386.91,75.2598 387.686,75.26 388.46,75.261 389.235,75.2617 390.01,75.2621 390.785,75.2633 391.56,75.2641 392.335,75.2645 393.11,75.2646 393.885,75.2655 394.66,75.2661 395.434,75.2663 396.21,75.2673 396.985,75.268 397.759,75.2684 398.535,75.2695 399.309,75.2702 400.084,75.2706 400.859,75.2707 401.635,75.2716 402.409,75.2721 403.184,75.2723 403.959,75.2722 404.734,75.2728 405.509,75.2731 406.284,75.2731 407.059,75.2739 407.834,75.2744 408.609,75.2745 409.384,75.2754 410.159,75.2759 410.934,75.2761 411.708,75.2771 412.484,75.2778 413.259,75.2781 414.034,75.2792 414.808,75.2799 415.584,75.2803 416.358,75.2803 417.133,75.2812 417.908,75.2817 418.684,75.2819 419.458,75.2828 420.233,75.2834 421.008,75.2837 421.783,75.2836 422.558,75.2843 423.333,75.2847 424.108,75.2847 424.883,75.2856 425.657,75.286 426.433,75.2862 427.207,75.2871 427.983,75.2877 428.757,75.2879 429.533,75.289 430.307,75.2896 431.082,75.29 431.857,75.291 432.632,75.2918 433.407,75.2922 434.182,75.2923 434.957,75.2931 435.732,75.2936 436.507,75.2938 437.282,75.2947 438.057,75.2953 438.832,75.2956 439.607,75.2955 440.382,75.2962 441.156,75.2965 441.932,75.2965 442.707,75.2973 443.481,75.2978 444.256,75.2979 445.032,75.2988 445.806,75.2994 446.581,75.2996 447.357,75.3006 448.131,75.3012 448.906,75.3015 449.681,75.3026 450.456,75.3032 451.231,75.3036 452.006,75.3047 452.781,75.3055 452.887,75.3056" stroke="#0000ff" stroke-linecap="butt"/>
  </g>
  <clipPath id="cp00500300">
   <polygon points="0,300 500,300 500,0 0,0"/>
  </clipPath>
  <g clip-path="url(#cp00500300)">
   <polygon fill="#ffffff" points="370.447,61.8614 441.819,61.8614 441.819,33.1807 370.447,33.1807" shape-rendering="crispEdges"/>
   <polyline fill="none" stroke-linejoin="miter" stroke-width="0.5" stroke-dasharray="16,0" points="370.447,61.8614 441.819,61.8614" stroke="#262626" stroke-linecap="square"/>
   <polyline fill="none" stroke-linejoin="miter" stroke-width="0.5" stroke-dasharray="16,0" points="370.447,33.1807 441.819,33.1807" stroke="#262626" stroke-linecap="square"/>
   <polyline fill="none" stroke-linejoin="miter" stroke-width="0.5" stroke-dasharray="16,0" points="370.447,61.8614 370.447,33.1807" stroke="#262626" stroke-linecap="square"/>
   <polyline fill="none" stroke-linejoin="miter" stroke-width="0.5" stroke-dasharray="16,0" points="441.819,61.8614 441.819,33.1807" stroke="#262626" stroke-linecap="square"/>
   <text font-style="normal" transform="translate(396.704,44.3509) rotate(-0,-0,-4)" font-family="FreeSans" xml:space="preserve" font-weight="normal" font-size="9">
    <tspan fill="rgb(0,0,0)" x="0 6 11 16 " y="-0">Real</tspan>
   </text>
   <text font-style="normal" transform="translate(396.704,59.1912) rotate(-0,-0,-4.5)" font-family="FreeSans" xml:space="preserve" font-weight="normal" font-size="9">
    <tspan fill="rgb(0,0,0)" x="0 6 8 15 20 22 27 30 32 37 " y="-1">Simulation</tspan>
   </text>
   <polyline fill="none" stroke-linejoin="round" stroke-width="3" points="373.563,40.3509 393.589,40.3509" stroke="#ff0000" stroke-linecap="butt"/>
   <polyline fill="none" stroke-linejoin="round" stroke-width="3" points="373.563,54.6912 393.589,54.6912" stroke="#0000ff" stroke-linecap="butt"/>
  </g>
 </g>
</svg>
