<?xml version='1.0' encoding='UTF-8' standalone='no'?>
<svg xmlns:xlink="http://www.w3.org/1999/xlink" height="300pt" width="500pt" xmlns="http://www.w3.org/2000/svg" viewBox="0 0 500 300">
 <title>gl2ps_renderer figure</title>
 <desc>
Creator: GL2PS 1.4.0, (C) 1999-2017 C. Geuzaine
For: Octave
CreationDate: Sun Feb  7 17:54:04 2021
</desc>
 <defs/>
 <polygon fill="#ffffff" points="0,0 500,0 500,300 0,300"/>
 <g>
  <polygon fill="#ffffff" shape-rendering="crispEdges" points="0,300 500,300 500,0 0,0"/>
  <clipPath id="cp00500300">
   <polygon points="0,300 500,300 500,0 0,0"/>
  </clipPath>
  <g clip-path="url(#cp00500300)">
   <polygon fill="#ffffff" shape-rendering="crispEdges" points="65,267 452.5,267 452.5,22.5 65,22.5"/>
   <polyline fill="none" stroke-width="0.5" stroke-linecap="butt" stroke-opacity="0.15" stroke-linejoin="miter" stroke-dasharray="16,0" points="65,267 65,22.5" stroke="#262626"/>
   <polyline fill="none" stroke-width="0.5" stroke-linecap="butt" stroke-opacity="0.15" stroke-linejoin="miter" stroke-dasharray="16,0" points="113.438,267 113.438,22.5" stroke="#262626"/>
   <polyline fill="none" stroke-width="0.5" stroke-linecap="butt" stroke-opacity="0.15" stroke-linejoin="miter" stroke-dasharray="16,0" points="161.875,267 161.875,22.5" stroke="#262626"/>
   <polyline fill="none" stroke-width="0.5" stroke-linecap="butt" stroke-opacity="0.15" stroke-linejoin="miter" stroke-dasharray="16,0" points="210.313,267 210.313,22.5" stroke="#262626"/>
   <polyline fill="none" stroke-width="0.5" stroke-linecap="butt" stroke-opacity="0.15" stroke-linejoin="miter" stroke-dasharray="16,0" points="258.75,267 258.75,22.5" stroke="#262626"/>
   <polyline fill="none" stroke-width="0.5" stroke-linecap="butt" stroke-opacity="0.15" stroke-linejoin="miter" stroke-dasharray="16,0" points="307.188,267 307.188,22.5" stroke="#262626"/>
   <polyline fill="none" stroke-width="0.5" stroke-linecap="butt" stroke-opacity="0.15" stroke-linejoin="miter" stroke-dasharray="16,0" points="355.625,267 355.625,22.5" stroke="#262626"/>
   <polyline fill="none" stroke-width="0.5" stroke-linecap="butt" stroke-opacity="0.15" stroke-linejoin="miter" stroke-dasharray="16,0" points="404.063,267 404.063,22.5" stroke="#262626"/>
   <polyline fill="none" stroke-width="0.5" stroke-linecap="butt" stroke-opacity="0.15" stroke-linejoin="miter" stroke-dasharray="16,0" points="452.5,267 452.5,22.5" stroke="#262626"/>
   <polyline fill="none" stroke-width="0.5" stroke-linecap="butt" stroke-linejoin="miter" points="65,267 65,263.117" stroke="#262626"/>
   <polyline fill="none" stroke-width="0.5" stroke-linecap="butt" stroke-linejoin="miter" points="113.438,267 113.438,263.117" stroke="#262626"/>
   <polyline fill="none" stroke-width="0.5" stroke-linecap="butt" stroke-linejoin="miter" points="161.875,267 161.875,263.117" stroke="#262626"/>
   <polyline fill="none" stroke-width="0.5" stroke-linecap="butt" stroke-linejoin="miter" points="210.313,267 210.313,263.117" stroke="#262626"/>
   <polyline fill="none" stroke-width="0.5" stroke-linecap="butt" stroke-linejoin="miter" points="258.75,267 258.75,263.117" stroke="#262626"/>
   <polyline fill="none" stroke-width="0.5" stroke-linecap="butt" stroke-linejoin="miter" points="307.188,267 307.188,263.117" stroke="#262626"/>
   <polyline fill="none" stroke-width="0.5" stroke-linecap="butt" stroke-linejoin="miter" points="355.625,267 355.625,263.117" stroke="#262626"/>
   <polyline fill="none" stroke-width="0.5" stroke-linecap="butt" stroke-linejoin="miter" points="404.063,267 404.063,263.117" stroke="#262626"/>
   <polyline fill="none" stroke-width="0.5" stroke-linecap="butt" stroke-linejoin="miter" points="452.5,267 452.5,263.117" stroke="#262626"/>
   <text font-family="FreeSans" font-size="10" transform="translate(62,282.515) rotate(-0,3,-8)" xml:space="preserve" font-weight="normal" font-style="normal">
    <tspan fill="rgb(38,38,38)" x="0 " y="-0">0</tspan>
   </text>
   <text font-family="FreeSans" font-size="10" transform="translate(102.938,282.515) rotate(-0,10.5,-8)" xml:space="preserve" font-weight="normal" font-style="normal">
    <tspan fill="rgb(38,38,38)" x="0 6 9 15 " y="-0">0.01</tspan>
   </text>
   <text font-family="FreeSans" font-size="10" transform="translate(151.375,282.515) rotate(-0,10.5,-8)" xml:space="preserve" font-weight="normal" font-style="normal">
    <tspan fill="rgb(38,38,38)" x="0 6 9 15 " y="-0">0.02</tspan>
   </text>
   <text font-family="FreeSans" font-size="10" transform="translate(199.812,282.515) rotate(-0,10.5,-8)" xml:space="preserve" font-weight="normal" font-style="normal">
    <tspan fill="rgb(38,38,38)" x="0 6 9 15 " y="-0">0.03</tspan>
   </text>
   <text font-family="FreeSans" font-size="10" transform="translate(248.25,282.515) rotate(-0,10.5,-8)" xml:space="preserve" font-weight="normal" font-style="normal">
    <tspan fill="rgb(38,38,38)" x="0 6 9 15 " y="-0">0.04</tspan>
   </text>
   <text font-family="FreeSans" font-size="10" transform="translate(296.688,282.515) rotate(-0,10.5,-8)" xml:space="preserve" font-weight="normal" font-style="normal">
    <tspan fill="rgb(38,38,38)" x="0 6 9 15 " y="-0">0.05</tspan>
   </text>
   <text font-family="FreeSans" font-size="10" transform="translate(345.125,282.515) rotate(-0,10.5,-8)" xml:space="preserve" font-weight="normal" font-style="normal">
    <tspan fill="rgb(38,38,38)" x="0 6 9 15 " y="-0">0.06</tspan>
   </text>
   <text font-family="FreeSans" font-size="10" transform="translate(393.563,282.515) rotate(-0,10.5,-8)" xml:space="preserve" font-weight="normal" font-style="normal">
    <tspan fill="rgb(38,38,38)" x="0 6 9 15 " y="-0">0.07</tspan>
   </text>
   <text font-family="FreeSans" font-size="10" transform="translate(442,282.515) rotate(-0,10.5,-8)" xml:space="preserve" font-weight="normal" font-style="normal">
    <tspan fill="rgb(38,38,38)" x="0 6 9 15 " y="-0">0.08</tspan>
   </text>
   <polyline fill="none" stroke-width="0.5" stroke-linecap="butt" stroke-opacity="0.15" stroke-linejoin="miter" stroke-dasharray="16,0" points="65,267 452.5,267" stroke="#262626"/>
   <polyline fill="none" stroke-width="0.5" stroke-linecap="butt" stroke-opacity="0.15" stroke-linejoin="miter" stroke-dasharray="16,0" points="65,205.875 452.5,205.875" stroke="#262626"/>
   <polyline fill="none" stroke-width="0.5" stroke-linecap="butt" stroke-opacity="0.15" stroke-linejoin="miter" stroke-dasharray="16,0" points="65,144.75 452.5,144.75" stroke="#262626"/>
   <polyline fill="none" stroke-width="0.5" stroke-linecap="butt" stroke-opacity="0.15" stroke-linejoin="miter" stroke-dasharray="16,0" points="65,83.625 452.5,83.625" stroke="#262626"/>
   <polyline fill="none" stroke-width="0.5" stroke-linecap="butt" stroke-opacity="0.15" stroke-linejoin="miter" stroke-dasharray="16,0" points="65,22.5 452.5,22.5" stroke="#262626"/>
   <polyline fill="none" stroke-width="0.5" stroke-linecap="butt" stroke-linejoin="miter" points="65,267 68.87,267" stroke="#262626"/>
   <polyline fill="none" stroke-width="0.5" stroke-linecap="butt" stroke-linejoin="miter" points="65,205.875 68.87,205.875" stroke="#262626"/>
   <polyline fill="none" stroke-width="0.5" stroke-linecap="butt" stroke-linejoin="miter" points="65,144.75 68.87,144.75" stroke="#262626"/>
   <polyline fill="none" stroke-width="0.5" stroke-linecap="butt" stroke-linejoin="miter" points="65,83.625 68.87,83.625" stroke="#262626"/>
   <polyline fill="none" stroke-width="0.5" stroke-linecap="butt" stroke-linejoin="miter" points="65,22.5 68.87,22.5" stroke="#262626"/>
   <text font-family="FreeSans" font-size="10" transform="translate(54.0064,271) rotate(-0,6,-4)" xml:space="preserve" font-weight="normal" font-style="normal">
    <tspan fill="rgb(38,38,38)" x="0 " y="-0">0</tspan>
   </text>
   <text font-family="FreeSans" font-size="10" transform="translate(33.0064,209.875) rotate(-0,27,-4)" xml:space="preserve" font-weight="normal" font-style="normal">
    <tspan fill="rgb(38,38,38)" x="0 6 9 15 21 " y="-0">0.005</tspan>
   </text>
   <text font-family="FreeSans" font-size="10" transform="translate(39.0064,148.75) rotate(-0,21,-4)" xml:space="preserve" font-weight="normal" font-style="normal">
    <tspan fill="rgb(38,38,38)" x="0 6 9 15 " y="-0">0.01</tspan>
   </text>
   <text font-family="FreeSans" font-size="10" transform="translate(33.0064,87.625) rotate(-0,27,-4)" xml:space="preserve" font-weight="normal" font-style="normal">
    <tspan fill="rgb(38,38,38)" x="0 6 9 15 21 " y="-0">0.015</tspan>
   </text>
   <text font-family="FreeSans" font-size="10" transform="translate(39.0064,26.5) rotate(-0,21,-4)" xml:space="preserve" font-weight="normal" font-style="normal">
    <tspan fill="rgb(38,38,38)" x="0 6 9 15 " y="-0">0.02</tspan>
   </text>
   <polyline fill="none" stroke-width="0.5" stroke-linecap="square" stroke-linejoin="miter" stroke-dasharray="16,0" points="65,267 452.5,267" stroke="#262626"/>
   <polyline fill="none" stroke-width="0.5" stroke-linecap="square" stroke-linejoin="miter" stroke-dasharray="16,0" points="65,267 65,22.5" stroke="#262626"/>
   <text font-family="FreeSans" font-size="11" transform="translate(240.75,299.515) rotate(-0,18,-12)" xml:space="preserve" font-weight="normal" font-style="normal">
    <tspan fill="rgb(38,38,38)" x="0 3 5 14 20 23 27 32 " y="-3">time (s)</tspan>
   </text>
   <text font-family="FreeSans" font-size="11" transform="translate(10.0064,144.75) rotate(-90,18,0)" xml:space="preserve" font-weight="normal" font-style="normal">
    <tspan fill="rgb(38,38,38)" x="0 5 9 12 16 19 23 32 " y="-3">x(t) (m)</tspan>
   </text>
   <text font-family="FreeSans" font-size="11" transform="translate(214.75,12.5) rotate(-0,44,0)" xml:space="preserve" font-weight="bold" font-style="normal">
    <tspan fill="rgb(0,0,0)" x="0 7 14 20 23 27 30 37 44 47 53 59 62 65 69 72 82 " y="-3">position vs. time</tspan>
   </text>
   <polyline fill="none" stroke-width="1" stroke-linecap="butt" stroke-linejoin="round" points="65,267 69.8438,266.845 74.6875,266.534 79.5313,266.068 84.375,265.447 89.2188,264.826 94.0625,264.05 98.9063,263.274 103.75,262.342 108.594,261.255 113.438,260.169 118.281,258.927 123.125,257.529 127.969,256.132 132.813,254.424 137.656,252.872 142.5,251.008 147.344,249.145 152.188,247.282 157.031,245.264 161.875,243.09 166.719,240.917 171.563,238.588 176.406,236.104 181.25,233.62 186.094,231.136 190.938,228.496 195.781,225.702 200.625,222.752 205.469,219.802 210.313,216.697 215.156,213.591 220,210.331 224.844,207.071 229.688,203.655 234.531,200.084 239.375,196.513 244.219,192.942 249.063,189.061 253.906,185.335 258.75,181.298 263.594,177.416 268.438,173.224 273.281,169.188 278.125,164.841 282.969,160.649 287.813,156.146 292.656,151.644 297.5,147.141 302.344,142.483 307.188,137.826 312.031,133.013 316.875,128.2 321.719,123.232 326.562,118.263 331.406,113.14 336.25,108.016 341.094,102.738 345.938,97.4588 350.781,92.1801 355.625,86.746 360.469,81.1568 365.312,75.7228 370.156,70.1335" stroke="#ff0000"/>
   <polyline fill="none" stroke-width="1" stroke-linecap="butt" stroke-linejoin="round" points="65,267 69.8438,266.845 74.6875,266.534 79.5313,266.224 84.375,265.758 89.2188,265.137 94.0625,264.361 98.9063,263.584 103.75,262.808 108.594,261.721 113.438,260.79 118.281,259.548 123.125,258.306 127.969,256.908 132.813,255.356 137.656,253.648 142.5,251.94 147.344,250.077 152.188,248.214 157.031,246.195 161.875,244.177 166.719,242.004 171.563,239.675 176.406,237.191 181.25,234.862 186.094,232.222 190.938,229.583 195.781,226.944 200.625,223.994 205.469,221.199 210.313,218.094 215.156,214.989 220,211.728 224.844,208.468 229.688,205.208 234.531,201.637 239.375,198.221 244.219,194.495 249.063,190.769 253.906,187.042 258.75,183.161 263.594,179.124 268.438,175.088 273.281,171.051 278.125,166.859 282.969,162.512 287.813,158.165 292.656,153.662 297.5,149.16 302.344,144.502 307.188,139.844 312.031,135.186 316.875,130.218 321.719,125.405 326.562,120.282 331.406,115.313 336.25,110.19 341.094,105.066 345.938,99.7877 350.781,94.3537 355.625,88.9196 360.469,83.4856 365.312,77.8964 370.156,72.4624" stroke="#ff0000"/>
   <polyline fill="none" stroke-width="1" stroke-linecap="butt" stroke-linejoin="round" points="65,267 69.8438,266.845 74.6875,266.689 79.5313,266.534 84.375,266.224 89.2188,265.758 94.0625,265.292 98.9063,264.826 103.75,264.05 108.594,263.274 113.438,262.342 118.281,261.411 123.125,260.324 127.969,259.082 132.813,257.84 137.656,256.443 142.5,254.89 147.344,253.337 152.188,251.63 157.031,249.766 161.875,247.903 166.719,245.885 171.563,243.711 176.406,241.538 181.25,239.364 186.094,236.88 190.938,234.551 195.781,231.912 200.625,229.272 205.469,226.478 210.313,223.683 215.156,220.733 220,217.783 224.844,214.678 229.688,211.418 234.531,208.157 239.375,204.897 244.219,201.326 249.063,197.91 253.906,194.339 258.75,190.613 263.594,186.732 268.438,182.85 273.281,178.969 278.125,174.932 282.969,170.74 287.813,166.548 292.656,162.356 297.5,158.009 302.344,153.662 307.188,149.004 312.031,144.502 316.875,139.844 321.719,135.031 326.562,130.218 331.406,125.405 336.25,120.437 341.094,115.469 345.938,110.345 350.781,105.066 355.625,99.9429 360.469,94.5089 365.312,89.2302 370.156,83.7962" stroke="#ff0000"/>
   <polyline fill="none" stroke-width="1" stroke-linecap="butt" stroke-linejoin="round" points="65,267 69.8438,266.845 74.6875,266.534 79.5313,266.068 84.375,265.447 89.2188,264.671 94.0625,263.895 98.9063,263.119 103.75,262.187 108.594,261.1 113.438,259.858 118.281,258.616 123.125,257.219 127.969,255.666 132.813,253.958 137.656,252.251 142.5,250.543 147.344,248.68 152.188,246.661 157.031,244.643 161.875,242.469 166.719,240.14 171.563,237.812 176.406,235.483 181.25,232.843 186.094,230.359 190.938,227.565 195.781,224.77 200.625,221.82 205.469,218.87 210.313,215.765 215.156,212.66 220,209.399 224.844,205.984 229.688,202.568 234.531,199.152 239.375,195.426 244.219,191.855 249.063,187.974 253.906,184.092 258.75,180.211 263.594,176.174 268.438,172.138 273.281,167.946 278.125,163.754 282.969,159.407 287.813,154.904 292.656,150.402 297.5,145.899 302.344,141.241 307.188,136.428 312.031,131.615 316.875,126.802 321.719,121.834 326.562,116.866 331.406,111.742 336.25,106.619 341.094,101.34 345.938,96.0615 350.781,90.6275 355.625,85.1935 360.469,79.7594 365.312,74.1702 370.156,68.5809" stroke="#ff0000"/>
   <polyline fill="none" stroke-width="1" stroke-linecap="butt" stroke-linejoin="round" points="65,267 69.8438,266.845 74.6875,266.689 79.5313,266.379 84.375,266.068 89.2188,265.447 94.0625,264.826 98.9063,264.05 103.75,263.274 108.594,262.342 113.438,261.255 118.281,260.169 123.125,258.927 127.969,257.529 132.813,255.977 137.656,254.424 142.5,252.716 147.344,251.008 152.188,249.145 157.031,247.127 161.875,245.109 166.719,242.935 171.563,240.761 176.406,238.433 181.25,235.949 186.094,233.464 190.938,230.98 195.781,228.186 200.625,225.546 205.469,222.596 210.313,219.646 215.156,216.541 220,213.436 224.844,210.331 229.688,207.071 234.531,203.655 239.375,200.239 244.219,196.668 249.063,192.942 253.906,189.216 258.75,185.49 263.594,181.608 268.438,177.572 273.281,173.535 278.125,169.343 282.969,165.151 287.813,160.959 292.656,156.457 297.5,152.109 302.344,147.607 307.188,142.949 312.031,138.292 316.875,133.479 321.719,128.666 326.562,123.697 331.406,118.729 336.25,113.606 341.094,108.637 345.938,103.359 350.781,98.0798 355.625,92.8011 360.469,87.3671 365.312,81.9331 370.156,76.3438" stroke="#ff0000"/>
   <polyline fill="none" stroke-width="1" stroke-linecap="butt" stroke-linejoin="round" points="65,266.845 69.8438,266.689 74.6875,266.689 79.5313,266.534 84.375,266.224 89.2188,265.913 94.0625,265.292 98.9063,264.671 103.75,263.895 108.594,262.963 113.438,262.032 118.281,261.1 123.125,259.858 127.969,258.616 132.813,257.374 137.656,255.821 142.5,254.269 147.344,252.561 152.188,250.853 157.031,248.99 161.875,247.127 166.719,245.109 171.563,242.935 176.406,240.606 181.25,238.277 186.094,235.949 190.938,233.464 195.781,230.825 200.625,228.341 205.469,225.546 210.313,222.596 215.156,219.646 220,216.697 224.844,213.591 229.688,210.331 234.531,207.071 239.375,203.655 244.219,200.239 249.063,196.668 253.906,193.097 258.75,189.216 263.594,185.49 268.438,181.608 273.281,177.572 278.125,173.535 282.969,169.498 287.813,165.151 292.656,160.959 297.5,156.457 302.344,151.954 307.188,147.452 312.031,142.949 316.875,138.292 321.719,133.479 326.562,128.666 331.406,123.697 336.25,118.729 341.094,113.761 345.938,108.637 350.781,103.359 355.625,98.2351 360.469,92.8011 365.312,87.3671 370.156,81.9331" stroke="#ff0000"/>
   <polyline fill="none" stroke-width="1" stroke-linecap="butt" stroke-linejoin="round" points="65,266.845 69.8438,266.689 74.6875,266.534 79.5313,266.379 84.375,266.068 89.2188,265.758 94.0625,265.292 98.9063,264.671 103.75,263.895 108.594,262.963 113.438,262.032 118.281,261.1 123.125,260.013 127.969,258.771 132.813,257.374 137.656,255.977 142.5,254.424 147.344,252.716 152.188,251.008 157.031,249.145 161.875,247.282 166.719,245.264 171.563,243.09 176.406,240.917 181.25,238.588 186.094,236.259 190.938,233.775 195.781,231.136 200.625,228.496 205.469,225.702 210.313,222.907 215.156,219.957 220,216.852 224.844,213.747 229.688,210.642 234.531,207.381 239.375,203.965 244.219,200.55 249.063,196.979 253.906,193.408 258.75,189.682 263.594,185.956 268.438,182.074 273.281,178.193 278.125,174.156 282.969,169.964 287.813,165.772 292.656,161.58 297.5,157.233 302.344,152.886 307.188,148.383 312.031,143.726 316.875,139.068 321.719,134.41 326.562,129.597 331.406,124.784 336.25,119.816 341.094,114.848 345.938,109.724 350.781,104.601 355.625,99.3219 360.469,94.0431 365.312,88.7644 370.156,83.3304" stroke="#ff0000"/>
   <polyline fill="none" stroke-width="1" stroke-linecap="butt" stroke-linejoin="round" points="65,266.845 69.8438,266.689 74.6875,266.689 79.5313,266.534 84.375,266.224 89.2188,265.758 94.0625,265.292 98.9063,264.516 103.75,263.74 108.594,262.963 113.438,262.032 118.281,261.1 123.125,259.858 127.969,258.771 132.813,257.374 137.656,255.821 142.5,254.269 147.344,252.561 152.188,250.853 157.031,248.99 161.875,246.972 166.719,244.953 171.563,242.935 176.406,240.606 181.25,238.277 186.094,235.949 190.938,233.464 195.781,230.98 200.625,228.341 205.469,225.546 210.313,222.752 215.156,219.802 220,216.697 224.844,213.591 229.688,210.486 234.531,207.226 239.375,203.81 244.219,200.395 249.063,196.824 253.906,193.253 258.75,189.527 263.594,185.8 268.438,181.919 273.281,178.037 278.125,174.001 282.969,169.964 287.813,165.772 292.656,161.425 297.5,157.078 302.344,152.73 307.188,148.228 312.031,143.57 316.875,139.068 321.719,134.255 326.562,129.442 331.406,124.629 336.25,119.661 341.094,114.692 345.938,109.569 350.781,104.445 355.625,99.1667 360.469,93.8879 365.312,88.6091 370.156,83.1751" stroke="#ff0000"/>
   <polyline fill="none" stroke-width="1" stroke-linecap="butt" stroke-linejoin="round" points="65,267 69.8438,266.845 74.6875,266.689 79.5313,266.534 84.375,266.068 89.2188,265.603 94.0625,264.982 98.9063,264.205 103.75,263.429 108.594,262.498 113.438,261.566 118.281,260.479 123.125,259.237 127.969,257.84 132.813,256.443 137.656,254.735 142.5,253.182 147.344,251.474 152.188,249.611 157.031,247.748 161.875,245.73 166.719,243.556 171.563,241.383 176.406,239.054 181.25,236.725 186.094,234.241 190.938,231.757 195.781,229.117 200.625,226.323 205.469,223.528 210.313,220.578 215.156,217.473 220,214.523 224.844,211.263 229.688,208.002 234.531,204.742 239.375,201.326 244.219,197.755 249.063,194.184 253.906,190.458 258.75,186.732 263.594,182.85 268.438,178.969 273.281,174.932 278.125,170.896 282.969,166.548 287.813,162.356 292.656,158.009 297.5,153.662 302.344,149.16 307.188,144.502 312.031,139.999 316.875,135.186 321.719,130.373 326.562,125.56 331.406,120.592 336.25,115.624 341.094,110.5 345.938,105.377 350.781,100.098 355.625,94.8194 360.469,89.5407 365.312,83.9514 370.156,78.5174" stroke="#ff0000"/>
   <polyline fill="none" stroke-width="1" stroke-linecap="butt" stroke-linejoin="round" points="65,266.845 69.8438,266.845 74.6875,266.534 79.5313,266.224 84.375,265.758 89.2188,265.137 94.0625,264.361 98.9063,263.584 103.75,262.653 108.594,261.721 113.438,260.634 118.281,259.548 123.125,258.15 127.969,256.753 132.813,255.2 137.656,253.648 142.5,251.94 147.344,250.077 152.188,248.214 157.031,246.195 161.875,244.177 166.719,242.004 171.563,239.675 176.406,237.346 181.25,234.862 186.094,232.378 190.938,229.738 195.781,226.944 200.625,224.149 205.469,221.199 210.313,218.249 215.156,215.144 220,212.039 224.844,208.778 229.688,205.518 234.531,202.102 239.375,198.531 244.219,194.961 249.063,191.234 253.906,187.508 258.75,183.627 263.594,179.745 268.438,175.709 273.281,171.672 278.125,167.48 282.969,163.288 287.813,158.941 292.656,154.594 297.5,150.091 302.344,145.589 307.188,140.931 312.031,136.273 316.875,131.46 321.719,126.492 326.562,121.679 331.406,116.711 336.25,111.587 341.094,106.464 345.938,101.34 350.781,96.0615 355.625,90.6275 360.469,85.3487 365.312,79.7594 370.156,74.3255" stroke="#ff0000"/>
   <polyline fill="none" stroke-width="1" stroke-linecap="butt" stroke-linejoin="round" points="65,267 69.8438,266.845 74.6875,266.689 79.5313,266.379 84.375,265.913 89.2188,265.447 94.0625,264.671 98.9063,264.05 103.75,263.119 108.594,262.187 113.438,261.255 118.281,260.169 123.125,258.927 127.969,257.529 132.813,256.132 137.656,254.579 142.5,252.872 147.344,251.164 152.188,249.456 157.031,247.438 161.875,245.419 166.719,243.401 171.563,241.072 176.406,238.898 181.25,236.57 186.094,234.085 190.938,231.601 195.781,228.962 200.625,226.167 205.469,223.373 210.313,220.578 215.156,217.473 220,214.523 224.844,211.263 229.688,208.157 234.531,204.742 239.375,201.326 244.219,197.91 249.063,194.339 253.906,190.613 258.75,186.887 263.594,183.161 268.438,179.28 273.281,175.243 278.125,171.206 282.969,167.014 287.813,162.822 292.656,158.475 297.5,154.128 302.344,149.625 307.188,145.123 312.031,140.465 316.875,135.807 321.719,131.15 326.562,126.337 331.406,121.368 336.25,116.4 341.094,111.432 345.938,106.309 350.781,101.185 355.625,95.9062 360.469,90.6275 365.312,85.3487 370.156,79.9147" stroke="#ff0000"/>
   <polyline fill="none" stroke-width="1" stroke-linecap="butt" stroke-linejoin="round" points="65,267 69.8438,266.845 74.6875,266.689 79.5313,266.379 84.375,265.913 89.2188,265.447 94.0625,264.671 98.9063,264.05 103.75,263.119 108.594,262.187 113.438,261.255 118.281,260.169 123.125,258.927 127.969,257.529 132.813,256.132 137.656,254.579 142.5,252.872 147.344,251.164 152.188,249.456 157.031,247.438 161.875,245.419 166.719,243.401 171.563,241.072 176.406,238.898 181.25,236.57 186.094,234.085 190.938,231.601 195.781,228.962 200.625,226.167 205.469,223.373 210.313,220.578 215.156,217.473 220,214.523 224.844,211.263 229.688,208.157 234.531,204.742 239.375,201.326 244.219,197.91 249.063,194.339 253.906,190.613 258.75,186.887 263.594,183.161 268.438,179.28 273.281,175.243 278.125,171.206 282.969,167.014 287.813,162.822 292.656,158.475 297.5,154.128 302.344,149.625 307.188,145.123 312.031,140.465 316.875,135.807 321.719,131.15 326.562,126.337 331.406,121.368 336.25,116.4 341.094,111.432 345.938,106.309 350.781,101.185 355.625,95.9062 360.469,90.6275 365.312,85.3487 370.156,79.9147" stroke="#ff0000"/>
   <polyline fill="none" stroke-width="1" stroke-linecap="butt" stroke-linejoin="round" points="65,267 69.8438,266.845 74.6875,266.534 79.5313,266.224 84.375,265.758 89.2188,265.137 94.0625,264.361 98.9063,263.584 103.75,262.808 108.594,261.721 113.438,260.79 118.281,259.548 123.125,258.306 127.969,256.753 132.813,255.2 137.656,253.648 142.5,251.94 147.344,250.077 152.188,248.214 157.031,246.195 161.875,244.177 166.719,242.004 171.563,239.675 176.406,237.346 181.25,234.862 186.094,232.378 190.938,229.738 195.781,227.099 200.625,224.149 205.469,221.354 210.313,218.249 215.156,215.144 220,212.039 224.844,208.778 229.688,205.518 234.531,202.102 239.375,198.531 244.219,194.961 249.063,191.234 253.906,187.508 258.75,183.782 263.594,179.901 268.438,175.864 273.281,171.827 278.125,167.635 282.969,163.288 287.813,158.941 292.656,154.594 297.5,150.091 302.344,145.589 307.188,140.931 312.031,136.273 316.875,131.46 321.719,126.647 326.562,121.679 331.406,116.711 336.25,111.587 341.094,106.464 345.938,101.34 350.781,96.0615 355.625,90.7827 360.469,85.3487 365.312,79.9147 370.156,74.3255" stroke="#ff0000"/>
   <polyline fill="none" stroke-width="1" stroke-linecap="butt" stroke-linejoin="round" points="65,267 69.8438,266.845 74.6875,266.689 79.5313,266.379 84.375,265.913 89.2188,265.292 94.0625,264.516 98.9063,263.74 103.75,262.808 108.594,261.877 113.438,260.79 118.281,259.548 123.125,258.15 127.969,256.753 132.813,255.2 137.656,253.493 142.5,251.785 147.344,249.922 152.188,248.059 157.031,246.04 161.875,244.022 166.719,241.848 171.563,239.519 176.406,237.035 181.25,234.706 186.094,232.067 190.938,229.428 195.781,226.788 200.625,223.994 205.469,221.044 210.313,218.094 215.156,214.989 220,211.728 224.844,208.468 229.688,205.208 234.531,201.792 239.375,198.221 244.219,194.65 249.063,190.924 253.906,187.042 258.75,183.161 263.594,179.28 268.438,175.243 273.281,171.206 278.125,166.859 282.969,162.667 287.813,158.32 292.656,153.817 297.5,149.315 302.344,144.812 307.188,140.155 312.031,135.497 316.875,130.684 321.719,125.716 326.562,120.747 331.406,115.779 336.25,110.811 341.094,105.687 345.938,100.409 350.781,95.13 355.625,89.8512 360.469,84.4172 365.312,78.8279 370.156,73.3939" stroke="#ff0000"/>
   <polyline fill="none" stroke-width="1" stroke-linecap="butt" stroke-linejoin="round" points="65,267 69.8438,266.845 74.6875,266.534 79.5313,266.068 84.375,265.603 89.2188,264.826 94.0625,264.05 98.9063,263.274 103.75,262.342 108.594,261.411 113.438,260.324 118.281,259.082 123.125,257.685 127.969,256.132 132.813,254.579 137.656,253.027 142.5,251.164 147.344,249.456 152.188,247.438 157.031,245.419 161.875,243.401 166.719,241.072 171.563,238.743 176.406,236.414 181.25,233.93 186.094,231.446 190.938,228.807 195.781,226.012 200.625,223.062 205.469,220.112 210.313,217.162 215.156,214.057 220,210.952 224.844,207.692 229.688,204.276 234.531,200.86 239.375,197.289 244.219,193.718 249.063,189.992 253.906,186.111 258.75,182.385 263.594,178.348 268.438,174.467 273.281,170.275 278.125,166.083 282.969,161.891 287.813,157.543 292.656,153.041 297.5,148.539 302.344,144.036 307.188,139.378 312.031,134.721 316.875,129.908 321.719,125.095 326.562,120.126 331.406,115.158 336.25,110.035 341.094,104.911 345.938,99.7877 350.781,94.5089 355.625,89.0749 360.469,83.7962 365.312,78.2069 370.156,72.7729" stroke="#ff0000"/>
   <polyline fill="none" stroke-width="1" stroke-linecap="butt" stroke-linejoin="round" points="65,267 69.8438,266.845 74.6875,266.534 79.5313,266.224 84.375,265.758 89.2188,265.137 94.0625,264.361 98.9063,263.584 103.75,262.808 108.594,261.877 113.438,260.79 118.281,259.548 123.125,258.306 127.969,256.908 132.813,255.356 137.656,253.803 142.5,252.095 147.344,250.387 152.188,248.524 157.031,246.506 161.875,244.488 166.719,242.314 171.563,239.985 176.406,237.656 181.25,235.327 186.094,232.843 190.938,230.204 195.781,227.565 200.625,224.77 205.469,221.82 210.313,218.87 215.156,215.765 220,212.66 224.844,209.555 229.688,206.294 234.531,202.879 239.375,199.308 244.219,195.892 249.063,192.166 253.906,188.44 258.75,184.714 263.594,180.832 268.438,176.795 273.281,172.759 278.125,168.567 282.969,164.375 287.813,160.183 292.656,155.836 297.5,151.333 302.344,146.831 307.188,142.173 312.031,137.515 316.875,132.858 321.719,128.045 326.562,123.076 331.406,118.108 336.25,113.14 341.094,108.016 345.938,102.893 350.781,97.6141 355.625,92.3353 360.469,86.9013 365.312,81.4673 370.156,76.0333" stroke="#ff0000"/>
   <polyline fill="none" stroke-width="1" stroke-linecap="butt" stroke-linejoin="round" points="65,266.689 69.8438,266.379 74.6875,266.068 79.5313,265.603 84.375,264.982 89.2188,264.361 94.0625,263.584 98.9063,262.653 103.75,261.721 108.594,260.634 113.438,259.548 118.281,258.15 123.125,256.753 127.969,255.2 132.813,253.648 137.656,251.94 142.5,250.232 147.344,248.369 152.188,246.351 157.031,244.332 161.875,242.159 166.719,239.83 171.563,237.501 176.406,235.172 181.25,232.688 186.094,230.049 190.938,227.409 195.781,224.615 200.625,221.665 205.469,218.715 210.313,215.61 215.156,212.505 220,209.399 224.844,205.984 229.688,202.568 234.531,199.152 239.375,195.582 244.219,191.855 249.063,188.129 253.906,184.403 258.75,180.522 263.594,176.485 268.438,172.448 273.281,168.256 278.125,164.064 282.969,159.717 287.813,155.37 292.656,150.867 297.5,146.365 302.344,141.862 307.188,137.205 312.031,132.392 316.875,127.579 321.719,122.611 326.562,117.642 331.406,112.674 336.25,107.551 341.094,102.272 345.938,97.1483 350.781,91.7143 355.625,86.4355 360.469,81.0015 365.312,75.4122 370.156,69.823" stroke="#ff0000"/>
   <polyline fill="none" stroke-width="1" stroke-linecap="butt" stroke-linejoin="round" points="65,267 69.8438,266.689 74.6875,266.068 79.5313,265.447 84.375,264.671 89.2188,263.895 94.0625,262.963 98.9063,262.032 103.75,260.945 108.594,259.703 113.438,258.306 118.281,256.908 123.125,255.356 127.969,253.803 132.813,252.095 137.656,250.232 142.5,248.369 147.344,246.351 152.188,244.332 157.031,242.159 161.875,239.83 166.719,237.501 171.563,235.017 176.406,232.533 181.25,229.893 186.094,227.254 190.938,224.459 195.781,221.51 200.625,218.56 205.469,215.455 210.313,212.349 215.156,209.089 220,205.829 224.844,202.413 229.688,198.842 234.531,195.271 239.375,191.7 244.219,187.974 249.063,184.092 253.906,180.211 258.75,176.174 263.594,172.138 268.438,167.946 273.281,163.754 278.125,159.407 282.969,155.059 287.813,150.557 292.656,146.054 297.5,141.397 302.344,136.739 307.188,131.926 312.031,127.113 316.875,122.145 321.719,117.177 326.562,112.208 331.406,107.085 336.25,101.961 341.094,96.6825 345.938,91.4038 350.781,85.9698 355.625,80.5358 360.469,75.1017 365.312,69.5125 370.156,63.9232" stroke="#ff0000"/>
   <polyline fill="none" stroke-width="1" stroke-linecap="butt" stroke-linejoin="round" points="65,266.689 69.8438,266.379 74.6875,265.758 79.5313,265.137 84.375,264.516 89.2188,263.74 94.0625,262.808 98.9063,261.877 103.75,260.945 108.594,259.703 113.438,258.461 118.281,256.908 123.125,255.511 127.969,253.803 132.813,252.095 137.656,250.387 142.5,248.524 147.344,246.506 152.188,244.488 157.031,242.314 161.875,239.985 166.719,237.656 171.563,235.327 176.406,232.843 181.25,230.204 186.094,227.565 190.938,224.77 195.781,221.82 200.625,218.87 205.469,215.765 210.313,212.66 215.156,209.555 220,206.294 224.844,202.879 229.688,199.463 234.531,195.892 239.375,192.166 244.219,188.44 249.063,184.714 253.906,180.832 258.75,176.951 263.594,172.914 268.438,168.722 273.281,164.53 278.125,160.183 282.969,155.836 287.813,151.333 292.656,146.831 297.5,142.328 302.344,137.671 307.188,132.858 312.031,128.045 316.875,123.232 321.719,118.263 326.562,113.295 331.406,108.172 336.25,103.048 341.094,97.7693 345.938,92.4906 350.781,87.0565 355.625,81.6225 360.469,76.1885 365.312,70.5993 370.156,65.01" stroke="#ff0000"/>
   <polyline fill="none" stroke-width="1" stroke-linecap="butt" stroke-linejoin="round" points="65,267 69.8438,266.845 74.6875,266.689 79.5313,266.534 84.375,266.068 89.2188,265.603 94.0625,264.982 98.9063,264.205 103.75,263.429 108.594,262.653 113.438,261.721 118.281,260.634 123.125,259.548 127.969,258.15 132.813,256.753 137.656,255.356 142.5,253.648 147.344,252.095 152.188,250.232 157.031,248.524 161.875,246.506 166.719,244.488 171.563,242.314 176.406,240.14 181.25,237.812 186.094,235.483 190.938,232.999 195.781,230.359 200.625,227.72 205.469,224.925 210.313,222.131 215.156,219.181 220,216.076 224.844,212.97 229.688,209.865 234.531,206.605 239.375,203.189 244.219,199.773 249.063,196.203 253.906,192.632 258.75,188.905 263.594,185.179 268.438,181.298 273.281,177.416 278.125,173.38 282.969,169.188 287.813,164.996 292.656,160.804 297.5,156.457 302.344,151.954 307.188,147.607 312.031,142.949 316.875,138.292 321.719,133.634 326.562,128.821 331.406,124.008 336.25,119.04 341.094,114.071 345.938,108.948 350.781,103.824 355.625,98.5456 360.469,93.2669 365.312,87.9881 370.156,82.5541" stroke="#ff0000"/>
   <polyline fill="none" stroke-width="1" stroke-linecap="butt" stroke-linejoin="round" points="65,267 69.8438,266.845 74.6875,266.689 79.5313,266.379 84.375,265.913 89.2188,265.447 94.0625,264.671 98.9063,263.895 103.75,263.119 108.594,262.187 113.438,261.1 118.281,260.013 123.125,258.771 127.969,257.374 132.813,255.821 137.656,254.269 142.5,252.561 147.344,250.853 152.188,248.99 157.031,247.127 161.875,245.109 166.719,242.935 171.563,240.761 176.406,238.433 181.25,235.949 186.094,233.464 190.938,230.98 195.781,228.341 200.625,225.546 205.469,222.596 210.313,219.802 215.156,216.697 220,213.591 224.844,210.486 229.688,207.226 234.531,203.81 239.375,200.395 244.219,196.824 249.063,193.253 253.906,189.682 258.75,185.8 263.594,182.074 268.438,178.037 273.281,174.156 278.125,169.964 282.969,165.772 287.813,161.58 292.656,157.233 297.5,152.73 302.344,148.228 307.188,143.726 312.031,139.068 316.875,134.41 321.719,129.597 326.562,124.784 331.406,119.816 336.25,114.848 341.094,109.724 345.938,104.601 350.781,99.3219 355.625,94.0431 360.469,88.7644 365.312,83.3304 370.156,77.7411" stroke="#ff0000"/>
   <polyline fill="none" stroke-width="1" stroke-linecap="butt" stroke-linejoin="round" points="65,266.845 69.8438,266.534 74.6875,266.224 79.5313,265.758 84.375,265.292 89.2188,264.516 94.0625,263.74 98.9063,262.963 103.75,262.032 108.594,261.1 113.438,259.858 118.281,258.616 123.125,257.219 127.969,255.821 132.813,254.269 137.656,252.561 142.5,250.853 147.344,249.145 152.188,247.282 157.031,245.264 161.875,243.09 166.719,240.917 171.563,238.588 176.406,236.259 181.25,233.775 186.094,231.291 190.938,228.651 195.781,225.857 200.625,223.062 205.469,220.112 210.313,217.007 215.156,214.057 220,210.797 224.844,207.536 229.688,204.276 234.531,200.86 239.375,197.289 244.219,193.718 249.063,189.992 253.906,186.266 258.75,182.385 263.594,178.503 268.438,174.467 273.281,170.43 278.125,166.393 282.969,162.046 287.813,157.699 292.656,153.352 297.5,148.849 302.344,144.347 307.188,139.844 312.031,135.186 316.875,130.373 321.719,125.56 326.562,120.592 331.406,115.624 336.25,110.656 341.094,105.532 345.938,100.409 350.781,95.13 355.625,89.8512 360.469,84.4172 365.312,78.9832 370.156,73.3939" stroke="#ff0000"/>
   <polyline fill="none" stroke-width="1" stroke-linecap="butt" stroke-linejoin="round" points="65,267 69.8438,266.845 74.6875,266.845 79.5313,266.689 84.375,266.534 89.2188,266.068 94.0625,265.603 98.9063,264.982 103.75,264.361 108.594,263.584 113.438,262.808 118.281,261.877 123.125,260.79 127.969,259.703 132.813,258.461 137.656,257.064 142.5,255.666 147.344,254.114 152.188,252.406 157.031,250.698 161.875,248.835 166.719,246.972 171.563,244.953 176.406,242.935 181.25,240.761 186.094,238.433 190.938,236.104 195.781,233.775 200.625,231.136 205.469,228.651 210.313,225.857 215.156,223.062 220,220.112 224.844,217.162 229.688,214.212 234.531,211.107 239.375,207.847 244.219,204.586 249.063,201.171 253.906,197.6 258.75,194.029 263.594,190.458 268.438,186.732 273.281,183.006 278.125,179.124 282.969,175.088 287.813,171.051 292.656,167.014 297.5,162.822 302.344,158.475 307.188,154.128 312.031,149.625 316.875,145.123 321.719,140.62 326.562,135.963 331.406,131.15 336.25,126.337 341.094,121.368 345.938,116.555 350.781,111.432 355.625,106.464 360.469,101.185 365.312,96.0615 370.156,90.7827" stroke="#ff0000"/>
   <polyline fill="none" stroke-width="1" stroke-linecap="butt" stroke-linejoin="round" points="65,266.845 69.8438,266.689 74.6875,266.379 79.5313,265.913 84.375,265.447 89.2188,264.826 94.0625,264.05 98.9063,263.119 103.75,262.187 108.594,261.255 113.438,260.169 118.281,258.771 123.125,257.529 127.969,255.977 132.813,254.424 137.656,252.716 142.5,251.008 147.344,249.145 152.188,247.127 157.031,245.109 161.875,243.09 166.719,240.761 171.563,238.433 176.406,236.104 181.25,233.62 186.094,230.98 190.938,228.341 195.781,225.546 200.625,222.596 205.469,219.646 210.313,216.697 215.156,213.436 220,210.331 224.844,207.071 229.688,203.655 234.531,200.239 239.375,196.668 244.219,192.942 249.063,189.216 253.906,185.49 258.75,181.608 263.594,177.572 268.438,173.535 273.281,169.498 278.125,165.306 282.969,160.959 287.813,156.612 292.656,152.109 297.5,147.607 302.344,143.105 307.188,138.447 312.031,133.634 316.875,128.821 321.719,124.008 326.562,119.04 331.406,113.916 336.25,108.793 341.094,103.669 345.938,98.3904 350.781,93.1116 355.625,87.8329 360.469,82.3988 365.312,76.8096 370.156,71.2203" stroke="#ff0000"/>
   <polyline fill="none" stroke-width="1" stroke-linecap="butt" stroke-linejoin="round" points="65,267 69.8438,266.845 74.6875,266.689 79.5313,266.224 84.375,265.758 89.2188,265.137 94.0625,264.516 98.9063,263.74 103.75,262.808 108.594,261.877 113.438,260.79 118.281,259.703 123.125,258.306 127.969,256.908 132.813,255.356 137.656,253.803 142.5,252.095 147.344,250.387 152.188,248.524 157.031,246.506 161.875,244.488 166.719,242.314 171.563,239.985 176.406,237.656 181.25,235.172 186.094,232.688 190.938,230.204 195.781,227.409 200.625,224.615 205.469,221.82 210.313,218.715 215.156,215.765 220,212.505 224.844,209.399 229.688,205.984 234.531,202.568 239.375,199.152 244.219,195.582 249.063,191.855 253.906,188.129 258.75,184.248 263.594,180.366 268.438,176.485 273.281,172.448 278.125,168.256 282.969,164.064 287.813,159.872 292.656,155.37 297.5,151.023 302.344,146.52 307.188,141.862 312.031,137.205 316.875,132.547 321.719,127.734 326.562,122.921 331.406,117.953 336.25,112.829 341.094,107.706 345.938,102.582 350.781,97.3036 355.625,92.0248 360.469,86.746 365.312,81.312 370.156,75.7228" stroke="#ff0000"/>
   <polyline fill="none" stroke-width="1" stroke-linecap="butt" stroke-linejoin="round" points="65,267 69.8438,266.845 74.6875,266.689 79.5313,266.379 84.375,265.913 89.2188,265.447 94.0625,264.671 98.9063,263.895 103.75,263.119 108.594,262.187 113.438,261.1 118.281,260.013 123.125,258.771 127.969,257.374 132.813,255.821 137.656,254.269 142.5,252.561 147.344,250.853 152.188,248.99 157.031,247.127 161.875,245.109 166.719,242.935 171.563,240.606 176.406,238.277 181.25,235.949 186.094,233.464 190.938,230.98 195.781,228.341 200.625,225.546 205.469,222.596 210.313,219.646 215.156,216.697 220,213.591 224.844,210.331 229.688,207.071 234.531,203.655 239.375,200.239 244.219,196.668 249.063,193.097 253.906,189.371 258.75,185.645 263.594,181.764 268.438,177.727 273.281,173.846 278.125,169.654 282.969,165.462 287.813,161.114 292.656,156.767 297.5,152.42 302.344,147.762 307.188,143.26 312.031,138.602 316.875,133.789 321.719,128.976 326.562,124.163 331.406,119.195 336.25,114.071 341.094,109.103 345.938,103.824 350.781,98.7009 355.625,93.2669 360.469,87.9881 365.312,82.5541 370.156,77.1201" stroke="#ff0000"/>
   <polyline fill="none" stroke-width="1" stroke-linecap="butt" stroke-linejoin="round" points="65,267 69.8438,266.845 74.6875,266.689 79.5313,266.534 84.375,266.068 89.2188,265.603 94.0625,264.982 98.9063,264.361 103.75,263.584 108.594,262.808 113.438,261.877 118.281,260.79 123.125,259.548 127.969,258.306 132.813,256.908 137.656,255.511 142.5,253.958 147.344,252.406 152.188,250.698 157.031,248.835 161.875,246.972 166.719,244.798 171.563,242.78 176.406,240.451 181.25,238.277 186.094,235.949 190.938,233.464 195.781,230.98 200.625,228.341 205.469,225.546 210.313,222.752 215.156,219.957 220,216.852 224.844,213.902 229.688,210.642 234.531,207.381 239.375,204.121 244.219,200.705 249.063,197.134 253.906,193.563 258.75,189.992 263.594,186.266 268.438,182.385 273.281,178.503 278.125,174.622 282.969,170.585 287.813,166.393 292.656,162.201 297.5,157.854 302.344,153.507 307.188,149.004 312.031,144.502 316.875,139.999 321.719,135.186 326.562,130.529 331.406,125.716 336.25,120.747 341.094,115.779 345.938,110.811 350.781,105.687 355.625,100.409 360.469,95.2852 365.312,89.8512 370.156,84.5724" stroke="#ff0000"/>
   <polyline fill="none" stroke-width="1" stroke-linecap="butt" stroke-linejoin="round" points="65,266.845 69.8438,266.689 74.6875,266.534 79.5313,266.068 84.375,265.603 89.2188,264.982 94.0625,264.361 98.9063,263.584 103.75,262.653 108.594,261.721 113.438,260.79 118.281,259.548 123.125,258.15 127.969,256.753 132.813,255.356 137.656,253.648 142.5,252.095 147.344,250.387 152.188,248.524 157.031,246.661 161.875,244.643 166.719,242.469 171.563,240.296 176.406,237.967 181.25,235.638 186.094,233.154 190.938,230.514 195.781,227.875 200.625,225.08 205.469,222.286 210.313,219.336 215.156,216.386 220,213.281 224.844,210.176 229.688,206.915 234.531,203.5 239.375,200.084 244.219,196.513 249.063,192.787 253.906,189.216 258.75,185.335 263.594,181.608 268.438,177.572 273.281,173.535 278.125,169.498 282.969,165.306 287.813,160.959 292.656,156.612 297.5,152.265 302.344,147.762 307.188,143.26 312.031,138.602 316.875,133.944 321.719,129.131 326.562,124.163 331.406,119.195 336.25,114.227 341.094,109.258 345.938,103.98 350.781,98.8561 355.625,93.5774 360.469,88.1434 365.312,82.7093 370.156,77.2753" stroke="#ff0000"/>
   <polyline fill="none" stroke-width="3" stroke-linecap="butt" stroke-linejoin="round" points="65,266.939 69.8438,266.767 74.6875,266.54 79.5313,266.207 84.375,265.747 89.2188,265.176 94.0625,264.472 98.9063,263.717 103.75,262.863 108.594,261.91 113.438,260.873 118.281,259.714 123.125,258.428 127.969,257.03 132.813,255.533 137.656,253.947 142.5,252.267 147.344,250.515 152.188,248.663 157.031,246.706 161.875,244.671 166.719,242.514 171.563,240.257 176.406,237.939 181.25,235.538 186.094,233.054 190.938,230.487 195.781,227.797 200.625,225.003 205.469,222.131 210.313,219.181 215.156,216.137 220,213.02 224.844,209.815 229.688,206.544 234.531,203.156 239.375,199.679 244.219,196.136 249.063,192.471 253.906,188.767 258.75,184.963 263.594,181.104 268.438,177.123 273.281,173.108 278.125,168.972 282.969,164.752 287.813,160.46 292.656,156.091 297.5,151.66 302.344,147.152 307.188,142.556 312.031,137.892 316.875,133.157 321.719,128.338 326.562,123.453 331.406,118.491 336.25,113.456 341.094,108.371 345.938,103.209 350.781,97.9523 355.625,92.6514 360.469,87.2894 365.312,81.8443 370.156,76.3604" stroke="#0000ff"/>
  </g>
  <clipPath id="cp00500300">
   <polygon points="0,300 500,300 500,0 0,0"/>
  </clipPath>
  <g clip-path="url(#cp00500300)">
   <polygon fill="#ffffff" shape-rendering="crispEdges" points="368.447,63.8614 441.819,63.8614 441.819,33.1807 368.447,33.1807"/>
   <polyline fill="none" stroke-width="0.5" stroke-linecap="square" stroke-linejoin="miter" stroke-dasharray="16,0" points="368.447,63.8614 441.819,63.8614" stroke="#262626"/>
   <polyline fill="none" stroke-width="0.5" stroke-linecap="square" stroke-linejoin="miter" stroke-dasharray="16,0" points="368.447,33.1807 441.819,33.1807" stroke="#262626"/>
   <polyline fill="none" stroke-width="0.5" stroke-linecap="square" stroke-linejoin="miter" stroke-dasharray="16,0" points="368.447,63.8614 368.447,33.1807" stroke="#262626"/>
   <polyline fill="none" stroke-width="0.5" stroke-linecap="square" stroke-linejoin="miter" stroke-dasharray="16,0" points="441.819,63.8614 441.819,33.1807" stroke="#262626"/>
   <text font-family="FreeSans" font-size="9" transform="translate(394.704,45.8509) rotate(-0,-0,-5)" xml:space="preserve" font-weight="normal" font-style="normal">
    <tspan fill="rgb(0,0,0)" x="0 5 9 14 19 22 24 31 36 41 " y="-2">experiment</tspan>
   </text>
   <text font-family="FreeSans" font-size="9" transform="translate(394.704,60.1912) rotate(-0,-0,-4)" xml:space="preserve" font-weight="normal" font-style="normal">
    <tspan fill="rgb(0,0,0)" x="0 5 9 14 17 22 27 " y="-2">average</tspan>
   </text>
   <polyline fill="none" stroke-width="1" stroke-linecap="butt" stroke-linejoin="round" points="371.563,40.8509 391.589,40.8509" stroke="#ff0000"/>
   <polyline fill="none" stroke-width="3" stroke-linecap="butt" stroke-linejoin="round" points="371.563,56.1912 391.589,56.1912" stroke="#0000ff"/>
  </g>
 </g>
</svg>
